<?xml version="1.0" encoding="UTF-8" standalone="no"?>
<svg xmlns:ffdec="https://www.free-decompiler.com/flash" xmlns:xlink="http://www.w3.org/1999/xlink" ffdec:objectType="frame" height="182.85px" width="246.4px" xmlns="http://www.w3.org/2000/svg">
  <g transform="matrix(1.0, 0.0, 0.0, 1.0, 123.2, 91.5)">
    <use ffdec:characterId="44" height="158.15" transform="matrix(1.0, 0.0, 0.0, 1.0, -123.2, -66.8)" width="246.4" xlink:href="#shape0"/>
    <use ffdec:characterId="46" height="36.7" id="mc_03" transform="matrix(-1.5924, -0.1283, -0.2066, 1.1236, 29.3534, -87.7439)" width="29.1" xlink:href="#sprite0"/>
    <use ffdec:characterId="47" height="45.1" transform="matrix(1.0, 0.0, 0.0, 1.0, -14.8, -69.7)" width="49.5" xlink:href="#shape2"/>
  </g>
  <defs>
    <g id="shape0" transform="matrix(1.0, 0.0, 0.0, 1.0, 123.2, 66.8)">
      <path d="M14.95 -55.15 L14.45 -55.4 15.05 -55.2 14.95 -55.15 M61.7 87.65 L59.95 87.95 59.75 87.95 61.7 87.65 59.75 87.95 Q55.55 88.05 61.9 87.55 L61.7 87.65 M-120.35 0.95 L-119.05 1.6 -119.0 1.65 -108.65 7.15 -108.7 7.05 -108.6 7.15 -103.45 10.4 Q-98.35 13.6 -63.75 32.15 -29.2 50.7 -4.0 59.75 L21.6 68.95 Q-4.65 72.75 -27.7 68.55 -83.5 58.35 -120.35 0.95" fill="#888888" fill-rule="evenodd" stroke="none"/>
      <path d="M121.9 21.3 Q116.05 45.9 107.65 58.7 104.1 64.05 99.5 68.55 93.15 74.75 84.75 79.3 70.25 87.2 62.05 87.55 L61.95 87.55 61.9 87.55 Q55.55 88.05 59.75 87.95 L59.95 87.95 61.7 87.65 61.7 87.7 Q29.85 99.1 21.3 69.15 L21.7 69.0 21.65 69.0 121.9 21.3 M115.55 25.7 Q75.8 54.35 31.15 66.5 82.2 62.05 115.55 25.7 M118.35 25.3 Q77.85 74.4 28.6 68.3 78.3 86.4 118.35 25.3" fill="#7b7b7b" fill-rule="evenodd" stroke="none"/>
      <path d="M117.4 15.25 Q124.7 16.75 121.9 21.3 L21.65 69.0 21.6 68.95 Q19.05 66.55 21.6 60.8 L101.2 22.95 117.4 15.25" fill="#8c8c8c" fill-rule="evenodd" stroke="none"/>
      <path d="M6.65 -51.9 L4.7 -51.1 2.05 -50.05 -0.1 -48.85 Q1.9 -44.05 3.4 -37.35 8.95 -12.4 21.6 60.8 L9.05 55.7 Q13.35 7.3 -2.35 -52.45 3.0 22.4 2.95 53.35 -61.4 27.0 -120.45 -6.15 -83.45 -21.9 -65.7 -43.25 -46.95 -60.55 -20.6 -63.9 -2.85 -68.9 13.75 -63.45 L16.45 -55.75 15.05 -55.2 14.45 -55.4 14.95 -55.15 12.65 -54.25 10.35 -53.35 6.65 -51.9 M21.3 69.15 Q17.8 72.35 3.05 76.8 -11.7 81.2 -24.2 79.9 -36.7 78.55 -47.45 74.85 -58.2 71.15 -73.65 60.3 -89.1 49.4 -103.95 28.85 -118.85 8.25 -121.65 0.3 L-120.35 0.95 Q-85.6 60.3 -39.4 72.25 -11.05 79.5 21.6 68.95 L21.65 69.0 21.3 69.15" fill="#999999" fill-rule="evenodd" stroke="none"/>
      <path d="M10.35 -53.35 L12.65 -54.25 34.6 -40.5 Q40.3 -34.5 31.25 -38.3 L10.35 -53.35" fill="#737373" fill-rule="evenodd" stroke="none"/>
      <path d="M4.7 -51.1 L6.65 -51.9 28.35 7.3 Q34.25 25.85 35.55 40.75 36.45 49.2 30.25 48.15 31.45 46.4 31.45 39.7 19.15 -17.25 4.7 -51.1" fill="#848484" fill-rule="evenodd" stroke="none"/>
      <path d="M2.05 -50.05 L4.7 -51.1 Q19.15 -17.25 31.45 39.7 31.45 46.4 30.25 48.15 L30.2 48.2 Q28.7 50.2 25.5 45.0 L25.4 44.45 Q17.85 -4.3 2.05 -50.05 M32.1 -46.15 Q24.7 -50.9 15.0 -55.15 L15.05 -55.2 Q35.9 -47.95 51.6 -34.2 69.7 -18.35 76.35 0.1 L76.45 0.3 76.8 0.85 Q82.3 9.75 73.35 5.55 66.3 -13.05 46.6 -34.1 L44.85 -35.95 Q39.7 -41.3 32.1 -46.15 M45.05 14.8 Q51.05 38.6 40.85 27.75 28.9 -8.2 11.65 -42.1 39.05 -9.0 45.05 14.8" fill="#595959" fill-rule="evenodd" stroke="none"/>
      <path d="M46.6 -34.1 L46.55 -33.7 Q45.65 -29.9 39.95 -31.6 44.8 -31.5 39.85 -38.4 L32.1 -46.15 Q39.7 -41.3 44.85 -35.95 L46.6 -34.1" fill="#aaaaaa" fill-rule="evenodd" stroke="none"/>
      <path d="M50.95 -23.3 Q49.5 -12.5 16.25 -43.3 32.45 -31.05 50.95 -23.3" fill="#bbbbbb" fill-rule="evenodd" stroke="none"/>
      <path d="M16.45 -55.75 L13.75 -63.45 25.75 -59.45 Q53.55 -47.8 76.05 -22.55 95.75 -0.5 117.4 15.25 L101.2 22.95 Q60.3 -44.15 16.45 -55.75 M115.55 25.7 Q82.2 62.05 31.15 66.5 75.8 54.35 115.55 25.7 M21.6 68.95 Q-11.05 79.5 -39.4 72.25 -85.6 60.3 -120.35 0.95 -83.5 58.35 -27.7 68.55 -4.65 72.75 21.6 68.95" fill="#484848" fill-rule="evenodd" stroke="none"/>
      <path d="M118.35 25.3 Q78.3 86.4 28.6 68.3 77.85 74.4 118.35 25.3" fill="#5e5e5e" fill-rule="evenodd" stroke="none"/>
      <path d="M6.65 -51.9 L10.35 -53.35 31.25 -38.3 Q40.3 -34.5 34.6 -40.5 L12.65 -54.25 14.95 -55.15 15.05 -55.2 16.45 -55.75 Q60.3 -44.15 101.2 22.95 L21.6 60.8 Q8.95 -12.4 3.4 -37.35 1.9 -44.05 -0.1 -48.85 L2.05 -50.05 Q17.85 -4.3 25.4 44.45 L25.5 45.0 Q28.7 50.2 30.2 48.2 L30.25 48.15 Q36.45 49.2 35.55 40.75 34.25 25.85 28.35 7.3 L6.65 -51.9 M46.6 -34.1 Q66.3 -13.05 73.35 5.55 82.3 9.75 76.8 0.85 L76.45 0.3 76.35 0.1 Q69.7 -18.35 51.6 -34.2 35.9 -47.95 15.05 -55.2 L15.0 -55.15 Q24.7 -50.9 32.1 -46.15 L39.85 -38.4 Q44.8 -31.5 39.95 -31.6 45.65 -29.9 46.55 -33.7 L46.6 -34.1 M59.1 -6.7 Q61.5 -10.3 55.6 -18.95 59.8 -10.25 50.1 -13.7 32.75 -23.55 18.5 -37.75 28.8 -22.3 44.85 -10.25 56.85 -2.3 59.1 -6.7 M50.95 -23.3 Q32.45 -31.05 16.25 -43.3 49.5 -12.5 50.95 -23.3 M45.05 14.8 Q39.05 -9.0 11.65 -42.1 28.9 -8.2 40.85 27.75 51.05 38.6 45.05 14.8" fill="#6f6f6f" fill-rule="evenodd" stroke="none"/>
      <path d="M59.1 -6.7 Q56.85 -2.3 44.85 -10.25 28.8 -22.3 18.5 -37.75 32.75 -23.55 50.1 -13.7 59.8 -10.25 55.6 -18.95 61.5 -10.3 59.1 -6.7" fill="#515151" fill-rule="evenodd" stroke="none"/>
      <path d="M-120.45 -6.15 Q-61.4 27.0 2.95 53.35 3.0 22.4 -2.35 -52.45 13.35 7.3 9.05 55.7 L21.6 60.8 Q19.05 66.55 21.6 68.95 L-4.0 59.75 Q-29.2 50.7 -63.75 32.15 -98.35 13.6 -103.45 10.4 L-108.6 7.15 -108.7 7.05 -108.65 7.15 -119.0 1.65 -119.05 1.6 -120.35 0.95 -121.65 0.3 Q-124.25 -2.95 -120.45 -6.15" fill="#b7b7b7" fill-rule="evenodd" stroke="none"/>
      <path d="M13.75 -63.45 Q-2.85 -68.9 -20.6 -63.9 -46.95 -60.55 -65.7 -43.25 -83.45 -21.9 -120.45 -6.15 -124.25 -2.95 -121.65 0.3 -118.85 8.25 -103.95 28.85 -89.1 49.4 -73.65 60.3 -58.2 71.15 -47.45 74.85 -36.7 78.55 -24.2 79.9 -11.7 81.2 3.05 76.8 17.8 72.35 21.3 69.15 L21.7 69.0 21.65 69.0 21.3 69.15 Q29.85 99.1 61.7 87.7 L62.05 87.55 61.7 87.65 61.9 87.55 61.95 87.55 62.05 87.55 Q70.25 87.2 84.75 79.3 93.15 74.75 99.5 68.55 104.1 64.05 107.65 58.7 116.05 45.9 121.9 21.3 124.7 16.75 117.4 15.25 95.75 -0.5 76.05 -22.55 53.55 -47.8 25.75 -59.45 L18.85 -62.2 M13.75 -63.45 L25.75 -59.45 M21.6 68.95 L21.65 69.0 M59.75 87.95 L59.95 87.95 61.7 87.65 59.75 87.95 Z" fill="none" stroke="#666666" stroke-linecap="round" stroke-linejoin="round" stroke-width="1.0"/>
      <path d="M55.2 86.25 Q39.2 92.7 25.45 74.0 39.35 85.4 55.2 86.25" fill="#484848" fill-rule="evenodd" stroke="none"/>
      <path d="M-44.4 49.4 Q-28.25 57.6 10.2 66.35 -26.2 60.95 -44.75 52.35 -63.35 43.7 -63.3 43.4 -63.25 43.1 -44.4 49.4" fill="#bbbbbb" fill-rule="evenodd" stroke="none"/>
      <path d="M119.4 25.95 Q92.7 104.1 25.15 71.35 86.3 87.5 119.4 25.95 M-105.3 14.7 Q-59.45 60.05 12.35 67.55 -65.25 69.65 -105.3 14.7" fill="#5e5e5e" fill-rule="evenodd" stroke="none"/>
      <path d="M-58.5 37.8 Q-57.55 39.6 -63.15 39.8 -91.0 26.9 -114.7 5.1 -88.3 25.3 -59.35 36.0 L-58.5 37.8" fill="#a2a2a2" fill-rule="evenodd" stroke="none"/>
      <path d="M13.8 -53.5 L-1.15 -64.2 Q12.65 -61.0 23.6 -54.7 L13.8 -53.5 M6.6 -51.85 L3.2 -59.2 2.6 -60.45 11.8 -52.3 7.0 -50.95 6.6 -51.85 M-2.75 -63.5 L-1.95 -62.3 Q1.1 -57.5 2.95 -47.55 L0.7 -46.5 -2.8 -63.5 -2.8 -63.55 -2.75 -63.5" fill="#7b7b7b" fill-rule="evenodd" stroke="none"/>
      <path d="M3.2 -59.2 L6.6 -51.85 4.8 -50.45 Q2.85 -55.65 -1.95 -62.3 L-2.75 -63.5 3.2 -59.2" fill="#848484" fill-rule="evenodd" stroke="none"/>
      <path d="M-45.3 62.15 Q-25.5 69.7 19.4 69.4 -37.2 73.6 -64.05 56.9 -90.95 40.2 -115.9 4.2 -72.8 57.25 -45.3 62.15" fill="#5e5e5e" fill-rule="evenodd" stroke="none"/>
      <path d="M-21.4 -35.7 L-25.55 -16.15 -37.8 -18.75 -29.45 -39.25 Q-21.3 -59.45 -2.25 -64.2 -17.3 -54.75 -21.4 -35.7" fill="#808080" fill-rule="evenodd" stroke="none"/>
      <path d="M-4.3 -18.05 L-4.45 -17.05 -16.7 -19.65 -16.4 -20.35 Q-7.15 -43.0 -2.25 -64.2 -0.8 -50.45 -4.3 -18.05" fill="#7b7b7b" fill-rule="evenodd" stroke="none"/>
      <path d="M-43.2 -39.65 L-47.4 -21.05 -59.65 -23.65 -51.3 -44.15 Q-43.15 -64.35 -2.25 -64.2 -39.05 -57.8 -43.2 -39.65" fill="#d0d0d0" fill-rule="evenodd" stroke="none"/>
    </g>
    <g id="sprite0" transform="matrix(1.0, 0.0, 0.0, 1.0, 1.4, 160.35)">
      <use ffdec:characterId="45" height="36.7" transform="matrix(1.0, 0.0, 0.0, 1.0, -1.4, -160.35)" width="29.1" xlink:href="#shape1"/>
    </g>
    <g id="shape1" transform="matrix(1.0, 0.0, 0.0, 1.0, 1.4, 160.35)">
      <path d="M21.75 -155.1 L21.6 -154.95 21.75 -154.8 16.95 -151.6 16.7 -151.6 9.1 -152.6 4.85 -156.6 4.95 -156.75 9.7 -159.85 16.1 -159.35 21.75 -155.1" fill="url(#gradient0)" fill-rule="evenodd" stroke="none"/>
      <path d="M9.1 -152.6 L16.7 -151.6 16.7 -151.55 18.1 -142.7 18.0 -142.65 17.7 -142.45 7.4 -143.25 7.15 -143.6 9.1 -152.6" fill="url(#gradient1)" fill-rule="evenodd" stroke="none"/>
      <path d="M16.95 -151.6 L21.75 -154.8 27.15 -148.45 18.1 -142.7 16.7 -151.55 16.95 -151.6" fill="url(#gradient2)" fill-rule="evenodd" stroke="none"/>
      <path d="M4.85 -156.6 L9.1 -152.6 7.15 -143.6 7.05 -143.55 -0.85 -150.95 4.85 -156.6" fill="url(#gradient3)" fill-rule="evenodd" stroke="none"/>
      <path d="M9.55 -125.95 L8.7 -126.4 -0.85 -150.9 -0.85 -150.95 7.05 -143.55 7.1 -143.5 7.35 -143.25 7.4 -143.25 9.55 -125.95" fill="url(#gradient4)" fill-rule="evenodd" stroke="none"/>
      <path d="M27.2 -148.45 L10.95 -125.9 12.2 -123.65 10.85 -125.85 18.1 -142.5 18.1 -142.7 27.15 -148.45 27.2 -148.45" fill="url(#gradient5)" fill-rule="evenodd" stroke="none"/>
      <path d="M10.85 -125.85 L9.55 -125.95 7.4 -143.25 17.7 -142.45 18.1 -142.5 10.85 -125.85" fill="url(#gradient6)" fill-rule="evenodd" stroke="none"/>
      <path d="M21.6 -154.95 L21.95 -154.95 21.75 -155.1 M9.7 -159.85 L4.95 -156.75 4.85 -156.6 9.1 -152.6 7.15 -143.6 7.1 -143.5 7.05 -143.55 -0.85 -150.95 -0.85 -150.9 -0.9 -151.0 -0.85 -150.95 4.85 -156.6 M16.7 -151.6 L16.95 -151.6 M21.75 -154.8 L21.6 -154.95 M21.95 -154.95 L21.75 -154.8 M27.15 -148.45 L27.2 -148.5 27.2 -148.45 10.95 -125.9 M10.85 -125.85 L9.55 -125.95 8.7 -126.4 -0.85 -150.9 M27.15 -148.45 L27.2 -148.45 M16.7 -151.55 L16.7 -151.6 M7.4 -143.25 L7.35 -143.25 7.1 -143.5 M7.4 -143.25 L7.15 -143.6 M17.7 -142.45 L18.0 -142.65 18.1 -142.7 18.1 -142.5 10.85 -125.85 M17.7 -142.45 L7.4 -143.25 9.55 -125.95" fill="none" stroke="#e23507" stroke-linecap="round" stroke-linejoin="round" stroke-width="1.0"/>
      <path d="M21.75 -155.1 L16.1 -159.35 9.7 -159.85 M16.95 -151.6 L21.75 -154.8 27.15 -148.45" fill="none" stroke="#ffb486" stroke-linecap="round" stroke-linejoin="round" stroke-width="1.0"/>
      <path d="M9.1 -152.6 L16.7 -151.6" fill="none" stroke="#ff9f71" stroke-linecap="round" stroke-linejoin="round" stroke-width="1.0"/>
      <path d="M16.7 -151.55 L18.1 -142.7" fill="none" stroke="#ffac7e" stroke-linecap="round" stroke-linejoin="round" stroke-width="1.0"/>
      <path d="M18.1 -142.7 L27.15 -148.45" fill="none" stroke="#ffb082" stroke-linecap="round" stroke-linejoin="round" stroke-width="1.0"/>
    </g>
    <linearGradient gradientTransform="matrix(-0.0068, -0.0055, 0.0037, -0.0047, 13.2, -155.6)" gradientUnits="userSpaceOnUse" id="gradient0" spreadMethod="pad" x1="-819.2" x2="819.2">
      <stop offset="0.0" stop-color="#ffac7e"/>
      <stop offset="1.0" stop-color="#dd3002"/>
    </linearGradient>
    <linearGradient gradientTransform="matrix(-0.0063, -0.005, 0.0047, -0.0059, 12.85, -146.75)" gradientUnits="userSpaceOnUse" id="gradient1" spreadMethod="pad" x1="-819.2" x2="819.2">
      <stop offset="0.0" stop-color="#ffac7e"/>
      <stop offset="1.0" stop-color="#dd3002"/>
    </linearGradient>
    <linearGradient gradientTransform="matrix(-0.0013, -0.0042, 0.0068, -0.0021, 20.9, -149.05)" gradientUnits="userSpaceOnUse" id="gradient2" spreadMethod="pad" x1="-819.2" x2="819.2">
      <stop offset="0.0" stop-color="#ffac7e"/>
      <stop offset="1.0" stop-color="#dd3002"/>
    </linearGradient>
    <linearGradient gradientTransform="matrix(-0.0051, -0.0041, 0.0034, -0.0042, 5.6, -150.35)" gradientUnits="userSpaceOnUse" id="gradient3" spreadMethod="pad" x1="-819.2" x2="819.2">
      <stop offset="0.0" stop-color="#ffac7e"/>
      <stop offset="1.0" stop-color="#dd3002"/>
    </linearGradient>
    <linearGradient gradientTransform="matrix(0.0063, 0.0, 0.0, 0.0157, 4.35, -138.1)" gradientUnits="userSpaceOnUse" id="gradient4" spreadMethod="pad" x1="-819.2" x2="819.2">
      <stop offset="0.0" stop-color="#ffac7e"/>
      <stop offset="1.0" stop-color="#dd3002"/>
    </linearGradient>
    <linearGradient gradientTransform="matrix(0.0088, 0.0, 0.0, 0.0139, 19.95, -137.1)" gradientUnits="userSpaceOnUse" id="gradient5" spreadMethod="pad" x1="-819.2" x2="819.2">
      <stop offset="0.0" stop-color="#ffac7e"/>
      <stop offset="1.0" stop-color="#dd3002"/>
    </linearGradient>
    <linearGradient gradientTransform="matrix(0.0065, 0.0, 0.0, 0.011, 12.75, -134.3)" gradientUnits="userSpaceOnUse" id="gradient6" spreadMethod="pad" x1="-819.2" x2="819.2">
      <stop offset="0.0" stop-color="#ffac7e"/>
      <stop offset="1.0" stop-color="#dd3002"/>
    </linearGradient>
    <g id="shape2" transform="matrix(1.0, 0.0, 0.0, 1.0, 14.8, 69.7)">
      <path d="M-9.1 -64.7 Q-7.2 -63.45 -2.85 -59.05 L3.05 -53.3 7.15 -49.85 Q16.35 -43.2 24.95 -39.0 L20.5 -30.95 Q12.45 -39.85 -0.55 -50.7 -9.7 -60.15 -9.35 -64.85 L-9.3 -64.8 -9.1 -64.7" fill="#7b7b7b" fill-rule="evenodd" stroke="none"/>
      <path d="M16.9 -59.6 L17.5 -58.15 19.95 -57.2 Q24.35 -55.3 25.05 -54.0 L25.05 -53.85 24.6 -53.7 Q17.25 -51.4 21.65 -48.5 25.85 -45.7 27.25 -45.1 L34.7 -39.15 Q11.8 -46.9 7.15 -49.85 L3.05 -53.3 -2.85 -59.05 Q-7.2 -63.45 -9.1 -64.7 -1.8 -60.15 4.75 -56.4 8.35 -54.7 10.2 -57.2 12.05 -59.7 13.3 -60.7 L15.45 -62.15 Q16.3 -62.65 16.3 -61.2 L16.9 -59.6 M20.5 -30.95 L9.95 -36.55 12.15 -24.6 Q8.2 -34.65 9.75 -36.35 L4.7 -31.5 Q2.3 -38.8 -3.5 -45.1 -17.2 -58.9 -13.55 -69.2 -11.35 -67.75 -9.3 -64.85 L-9.3 -64.8 -9.35 -64.85 Q-9.7 -60.15 -0.55 -50.7 12.45 -39.85 20.5 -30.95" fill="#595959" fill-rule="evenodd" stroke="none"/>
      <path d="M16.9 -59.6 L16.3 -61.2 Q16.3 -62.65 15.45 -62.15 L13.3 -60.7 Q12.05 -59.7 10.2 -57.2 8.35 -54.7 4.75 -56.4 -1.8 -60.15 -9.1 -64.7 -7.2 -63.45 -2.85 -59.05 L3.05 -53.3 7.15 -49.85 Q16.35 -43.2 24.95 -39.0 M-13.55 -69.2 Q-11.35 -67.75 -9.3 -64.85 L-9.3 -64.8 -9.1 -64.7 M-9.35 -64.85 L-9.3 -64.8" fill="none" stroke="#666666" stroke-linecap="round" stroke-linejoin="round" stroke-width="1.0"/>
      <path d="M-3.5 -45.1 Q-17.2 -58.9 -13.55 -69.2" fill="none" stroke="#999999" stroke-linecap="round" stroke-linejoin="round" stroke-width="1.0"/>
    </g>
  </defs>
</svg>
